# xmcd
#
# Track frame offsets:
#  150
#  43765
#  71610
#  100190
#  114063
#  129325
#  149520
#  219010
#  263005
#
# Disc length: 4237 seconds
#
# Revision: 5
# Processed by: cddbd v1.5.2PL0 Copyright (c) Steve Scherf et al.
# Submitted via: Collectorz.com_Music_Collector 6.10
#
DISCID=77108b09
DTITLE=Vladimir Horowitz - Horowitz Plays Rachmaninoff (Full track details)
DYEAR=1989
DGENRE=Classical - Piano
TTITLE0=Rachmaninoff - Sonata No. 2, Op. 36 - I. Allegro agitato
TTITLE1=Rachmaninoff - Sonata No. 2, Op. 36 - II. Non allegro - Lento
TTITLE2=Rachmaninoff - Sonata No. 2, Op. 36 - III. L'istesso tempo - Allegro molto
TTITLE3=Rachmanioff - Moment musicale, Op. 16, No. 2
TTITLE4=Rachmaninoff - Prelude, Op. 32, No. 5
TTITLE5=Rachmaninoff - Polka V.R. - Concerto No. 3, Op. 30
TTITLE6=Rachmaninof - Concerto No.3, Op. 30 Dmin - I. Rachmaninoff - Sonata No. 2, Op. 36 -Allegro ma non tanto
TTITLE7=Rachmaninof - Concerto No.3, Op. 30 Dmin - I. Rachmaninoff - Sonata No. 2, Op. 36 - II. Intermezzo: Adagio
TTITLE8=Rachmaninof - Concerto No.3, Op. 30 Dmin - I. Rachmaninoff - Sonata No. 2, Op. 36 -III. Finale: alla breve
EXTD=
EXTT0=
EXTT1=
EXTT2=
EXTT3=
EXTT4=
EXTT5=
EXTT6=
EXTT7=
EXTT8=
PLAYORDER=
